{"title":"Family Guy S11E10 720p XBOX360/PS3 READY","uid":8017932,"size":304533152,"categoryP":"video","categoryS":"hd___tv_shows","magnet":"?xt=urn:btih:3cd4391a2154be3f6a1a4b815672bf92ded094b4&amp;dn=Family+Guy+S11E10+720p+XBOX360%2FPS3+READY&amp;tr=udp%3A%2F%2Ftracker.openbittorrent.com%3A80&amp;tr=udp%3A%2F%2Fopen.demonii.com%3A1337&amp;tr=udp%3A%2F%2Ftracker.coppersurfer.tk%3A6969&amp;tr=udp%3A%2F%2Fexodus.desync.com%3A6969","seeders":1,"leechers":0,"uploader":"Danimal1q2w3","files":1,"time":1358138337,"description":"Family Guy S11E10 720p XBOX360/PS3 READY\n\n\n\nID                                       : 0\nFormat                                   : MPEG-4 Visual\nFormat profile                           : Simple@L3\nFormat settings, BVOP                    : No\nFormat settings, QPel                    : No\nFormat settings, GMC                     : No warppoints\nFormat settings, Matrix                  : Default (H.263)\nCodec ID                                 : XVID\nCodec ID/Hint                            : XviD\nDuration                                 : 21mn 39s\nSource duration                          : 21mn 39s\nBit rate                                 : 1 558 Kbps\nWidth                                    : 1 280 pixels\nHeight                                   : 720 pixels\nDisplay aspect ratio                     : 16:9\nFrame rate                               : 24.000 fps\nColor space                              : YUV\nChroma subsampling                       : 4:2:0\nBit depth                                : 8 bits\nScan type                                : Progressive\nCompression mode                         : Lossy\nBits/(Pixel*Frame)                       : 0.070\nStream size                              : 241 MiB (83%)\nWriting library                          : XviD 63\n\nAudio\nID                                       : 1\nFormat                                   : MPEG Audio\nFormat version                           : Version 1\nFormat profile                           : Layer 3\nMode                                     : Joint stereo\nCodec ID                                 : 55\nCodec ID/Hint                            : MP3\nDuration                                 : 21mn 39s\nBit rate mode                            : Variable\nBit rate                                 : 304 Kbps\nChannel(s)                               : 2 channels\nSampling rate                            : 48.0 KHz\nCompression mode                         : Lossy\nStream size                              : 47.1 MiB (16%)\nAlignment                                : Aligned on interleaves\nInterleave, duration                     : 24 ms (0.58 video frame)\nInterleave, preload duration             : 512 ms\n","torrent":{"xt":"urn:btih:3cd4391a2154be3f6a1a4b815672bf92ded094b4","amp;dn":"Family+Guy+S11E10+720p+XBOX360%2FPS3+READY","amp;tr":["udp%3A%2F%2Ftracker.openbittorrent.com%3A80","udp%3A%2F%2Fopen.demonii.com%3A1337","udp%3A%2F%2Ftracker.coppersurfer.tk%3A6969","udp%3A%2F%2Fexodus.desync.com%3A6969"],"infoHash":"3cd4391a2154be3f6a1a4b815672bf92ded094b4","infoHashBuffer":{"type":"Buffer","data":[60,212,57,26,33,84,190,63,106,26,75,129,86,114,191,146,222,208,148,180]},"announce":[],"urlList":[]}}